<svg xmlns="http://www.w3.org/2000/svg" width="260" height="320" viewBox="0 0 260 320"><defs><linearGradient id="robe" x1="0" y1="0" x2="1" y2="1"><stop stop-color="#e8e0c8"/><stop offset="1" stop-color="#9bb5b1"/></linearGradient></defs><g stroke="#263b40" stroke-width="6" stroke-linecap="round" stroke-linejoin="round"><ellipse cx="130" cy="286" rx="86" ry="16" fill="#49686b" opacity=".22" stroke="none"/><path d="M78 286 Q82 210 103 160 L130 150 L157 160 Q180 210 182 286Z" fill="url(#robe)"/><path d="M102 166 L130 220 L158 166" fill="#d4c29e"/><circle cx="130" cy="104" r="42" fill="#ead2b7"/><path d="M89 101 Q94 48 132 45 Q171 49 173 103 Q156 83 132 84 Q107 82 89 101Z" fill="#273d43"/><path d="M101 73 Q129 48 158 72" fill="none"/><path d="M104 105 Q112 110 120 105 M140 105 Q148 110 156 105" fill="none" stroke-width="4"/><path d="M120 124 Q130 130 140 124" fill="none" stroke-width="4"/><path d="M103 174 L67 230 L101 244 M157 174 L193 230 L159 244" fill="#b5c9c3"/><path d="M130 155 L130 286" fill="none" stroke="#526d70" stroke-width="4"/></g></svg>